
<svg width="160px" height="70px" viewBox="0 0 16 8" version="1.1" xmlns="http://www.w3.org/2000/svg" xmlns:xlink="http://www.w3.org/1999/xlink">
    <!-- Generator: Sketch 43.2 (39069) - http://www.bohemiancoding.com/sketch -->
    <desc>Created with Sketch.</desc>
    <defs></defs>
    <g id="Page-1" stroke="none" stroke-width="1" fill="none" fill-rule="evenodd">
        <g id="icon" transform="translate(-4.000000, -8.000000)" fill="#D9F0FF">
            <path d="M6.68,12.296 C6.68,12.5200011 6.66533348,12.8399979 6.636,13.256 C6.60666652,13.6720021 6.592,13.9946655 6.592,14.224 C6.592,14.5600017 6.5520004,14.8559987 6.472,15.112 C6.35466608,15.4853352 6.17333456,15.672 5.928,15.672 C5.65599864,15.672 5.44800072,15.5200015 5.304,15.216 C5.18666608,14.9759988 5.128,14.7120014 5.128,14.424 C5.128,14.231999 5.17333288,14.0293344 5.264,13.816 C4.81599776,13.7733331 4.48000112,13.514669 4.256,13.04 C4.08533248,12.6666648 4,12.2293358 4,11.728 C4,11.3386647 4.13599864,10.8986691 4.408,10.408 C4.72266824,9.83733048 5.07733136,9.552 5.472,9.552 L5.904,9.552 C6.12800112,9.552 6.24,9.66666552 6.24,9.896 C6.24,10.1253345 6.12800112,10.24 5.904,10.24 L5.552,10.24 C5.30133208,10.3840007 5.09200084,10.5946653 4.924,10.872 C4.75599916,11.1493347 4.672,11.4346652 4.672,11.728 C4.672,12.0586683 4.71733288,12.3519987 4.808,12.608 C4.93600064,12.9546684 5.12799872,13.128 5.384,13.128 C5.50666728,13.128 5.64533256,13.0160011 5.8,12.792 C5.83733352,12.6319992 5.91999936,12.4026682 6.048,12.104 C6.06400008,12.0826666 6.1119996,12.0506669 6.192,12.008 C6.28266712,11.9066662 6.36266632,11.856 6.432,11.856 C6.49066696,11.856 6.53866648,11.9013329 6.576,11.992 C6.64533368,12.0453336 6.68,12.1466659 6.68,12.296 Z M5.92,14.016 C5.84533296,14.1706674 5.808,14.3066661 5.808,14.424 C5.808,14.5413339 5.82666648,14.6613327 5.864,14.784 C5.8906668,14.6453326 5.90933328,14.3893352 5.92,14.016 Z M10.208,13.424 C10.208,13.5200005 10.1720004,13.5999997 10.1,13.664 C10.0279996,13.7280003 9.94666712,13.76 9.856,13.76 C9.70133256,13.76 9.59600028,13.6760008 9.54,13.508 C9.48399972,13.3399992 9.44800008,13.1440011 9.432,12.92 C9.4053332,12.9520002 9.37600016,12.9839998 9.344,13.016 C9.22666608,13.2133343 9.08000088,13.312 8.904,13.312 C8.79199944,13.312 8.69200044,13.2906669 8.604,13.248 C8.51599956,13.2053331 8.42933376,13.1600002 8.344,13.112 C7.97599816,12.9626659 7.73066728,12.7360015 7.608,12.432 C7.52266624,12.2186656 7.48,11.8800023 7.48,11.416 C7.48,11.2293324 7.4866666,10.9906681 7.5,10.7 C7.5133334,10.4093319 7.52,10.1706676 7.52,9.984 C7.52,9.75466552 7.63466552,9.64 7.864,9.64 C8.08800112,9.64 8.2,9.75466552 8.2,9.984 C8.2,10.1706676 8.1933334,10.4093319 8.18,10.7 C8.1666666,10.9906681 8.16,11.2293324 8.16,11.416 C8.16,11.7253349 8.16266664,11.909333 8.168,11.968 C8.20533352,12.1546676 8.30133256,12.2986662 8.456,12.4 C8.48800016,12.4160001 8.60533232,12.4799994 8.808,12.592 C8.90400048,12.4853328 9.0319992,12.3146678 9.192,12.08 C9.25066696,11.9573327 9.34399936,11.7653346 9.472,11.504 C9.5520004,11.3439992 9.66133264,11.264 9.8,11.264 C10.008001,11.264 10.112,11.3946654 10.112,11.656 C10.112,11.7520005 10.1093334,11.899999 10.104,12.1 C10.0986666,12.300001 10.096,12.4506662 10.096,12.552 C10.096,12.8400014 10.1199998,13.0693325 10.168,13.24 C10.1946668,13.3360005 10.208,13.3973332 10.208,13.424 Z M13.44,13.528 C13.039998,13.6186671 12.7680007,13.664 12.624,13.664 C12.490666,13.664 12.3440008,13.6480002 12.184,13.616 C12.1519998,13.6213334 12.1173335,13.624 12.08,13.624 C11.8506655,13.624 11.6533342,13.5546674 11.488,13.416 C11.4399998,13.5120005 11.3973335,13.5999996 11.36,13.68 C11.301333,13.8186674 11.2026674,13.888 11.064,13.888 C10.9733329,13.888 10.8920004,13.8560003 10.82,13.792 C10.7479996,13.7279997 10.712,13.6480005 10.712,13.552 C10.712,13.5039998 10.7226666,13.4560002 10.744,13.408 C10.9573344,12.9599978 11.167999,12.5146689 11.376,12.072 C11.6213346,11.5439974 11.7973328,11.0853353 11.904,10.696 C11.9573336,10.503999 12.0586659,10.408 12.208,10.408 C12.3093338,10.408 12.4026662,10.4586662 12.488,10.56 C12.6480008,10.7466676 12.7839994,11.0319981 12.896,11.416 C12.9973338,11.7626684 13.048,12.069332 13.048,12.336 C13.048,12.5386677 13.0080004,12.743999 12.928,12.952 C13.2426682,12.8826663 13.3920001,12.848 13.376,12.848 C13.4773338,12.848 13.557333,12.8839996 13.616,12.956 C13.674667,13.0280004 13.704,13.1093329 13.704,13.2 C13.704,13.3760009 13.6160009,13.4853331 13.44,13.528 Z M12.376,12.336 C12.376,12.1653325 12.3413337,11.9573346 12.272,11.712 C12.1653328,11.978668 12.0000011,12.3466643 11.776,12.816 C11.8560004,12.8373334 11.9786658,12.8693331 12.144,12.912 C12.2986674,12.8053328 12.376,12.6133347 12.376,12.336 Z M16.222755,13.398755 L16.24,13.416 C16.1333328,13.549334 16.0693334,13.6239999 16.048,13.64 C15.973333,13.7093337 15.8853338,13.744 15.784,13.744 C15.2933309,13.744 15.048,13.3626705 15.048,12.6 C15.048,12.5199996 15.0506666,12.4106674 15.056,12.272 C15.0613334,12.1333326 15.064,12.0400002 15.064,11.992 C15.064,11.8426659 15.0613334,11.6906674 15.056,11.536 L14.712,11.536 C14.4879989,11.536 14.376,11.4240011 14.376,11.2 C14.376,10.9706655 14.4879989,10.856 14.712,10.856 L15.032,10.856 C14.9946665,10.1359964 14.976,9.63200144 14.976,9.344 C14.976,9.11466552 15.0879989,9 15.312,9 C15.5360011,9 15.648,9.11466552 15.648,9.344 C15.648,9.62666808 15.6666665,10.130663 15.704,10.856 L15.832,10.856 C16.0560011,10.856 16.168,10.9706655 16.168,11.2 C16.168,11.4240011 16.0560011,11.536 15.832,11.536 L15.728,11.536 C15.7333334,11.6906674 15.736,11.8426659 15.736,11.992 C15.736,11.9706666 15.7280001,12.1333316 15.712,12.48 C15.7013333,12.6933344 15.7093332,12.8559994 15.736,12.968 C15.8320005,12.8506661 15.9359994,12.792 16.048,12.792 C16.1333338,12.792 16.2079997,12.8226664 16.272,12.884 C16.3360003,12.9453336 16.368,13.0186662 16.368,13.104 C16.368,13.2033525 16.3195853,13.3016038 16.222755,13.398755 L16.222755,13.398755 Z M19.68,12.496 C19.68,12.7840014 19.5920009,13.0506654 19.416,13.296 C19.2026656,13.5786681 18.933335,13.72 18.608,13.72 C18.2559982,13.72 17.9520013,13.6480007 17.696,13.504 C17.354665,13.311999 17.184,13.0133354 17.184,12.608 C17.184,12.341332 17.2746658,12.0720014 17.456,11.8 C17.6746678,11.474665 17.9359985,11.312 18.24,11.312 C18.2880002,11.312 18.3466663,11.3173333 18.416,11.328 C18.4960004,11.3013332 18.5919994,11.3146664 18.704,11.368 C18.837334,11.3893334 18.9119999,11.4026666 18.928,11.408 C19.0133338,11.4293334 19.0773331,11.4639998 19.12,11.512 C19.3546678,11.5920004 19.5146662,11.735999 19.6,11.944 C19.6533336,12.0826674 19.68,12.2666655 19.68,12.496 Z M19.008,12.496 C19.008,12.2986657 18.9760003,12.1813335 18.912,12.144 C18.8159995,12.1173332 18.6826675,12.074667 18.512,12.016 C18.3893327,11.9999999 18.298667,11.992 18.24,11.992 C18.181333,11.992 18.1066671,12.0533327 18.016,12.176 C17.9093328,12.3200007 17.856,12.4639993 17.856,12.608 C17.856,12.9013348 18.1066642,13.048 18.608,13.048 C18.6986671,13.048 18.7879996,12.9933339 18.876,12.884 C18.9640004,12.7746661 19.008,12.6453341 19.008,12.496 Z" id="Gusto"></path>
        </g>
    </g>
</svg>