
<svg width="50px" height="85px" viewBox="0 0 10 17" version="1.1" xmlns="http://www.w3.org/2000/svg" xmlns:xlink="http://www.w3.org/1999/xlink">
    <!-- Generator: Sketch 43.2 (39069) - http://www.bohemiancoding.com/sketch -->
    <desc>Created with Sketch.</desc>
    <defs></defs>
    <g id="Page-1" stroke="none" stroke-width="1" fill="none" fill-rule="evenodd">
        <g id="icon" transform="translate(-7.000000, -4.000000)" fill="#FFFFFF">
            <path d="M10.5434783,11.326087 C9.48550196,11.8405823 8.95652174,12.2934763 8.95652174,12.6847826 C8.95652174,12.8949286 9.07789734,13.072463 9.32065217,13.2173913 C9.56340701,13.3623196 9.89492543,13.4347826 10.3152174,13.4347826 L14.1304348,13.326087 C15.0362364,13.326087 15.7409395,13.5470992 16.2445652,13.9891304 C16.7481909,14.4311616 17,15.057967 17,15.8695652 C17,17.1521803 16.427542,18.1739092 15.2826087,18.9347826 C14.1376754,19.695656 12.8007323,20.076087 11.2717391,20.076087 C10.0181097,20.076087 8.99275761,19.8134084 8.19565217,19.2880435 C7.39854674,18.7626785 7,18.0833375 7,17.25 C7,16.3441984 7.61593587,15.5797133 8.84782609,14.9565217 C7.82608185,14.4782585 7.31521739,13.8913078 7.31521739,13.1956522 C7.31521739,12.3985467 7.97463109,11.6558005 9.29347826,10.9673913 C8.68477957,10.5978242 8.21739293,10.1195682 7.89130435,9.5326087 C7.56521576,8.94564924 7.40217391,8.32609022 7.40217391,7.67391304 C7.40217391,6.60869033 7.76448913,5.73369908 8.48913043,5.04891304 C9.21377174,4.36412701 10.1195598,4.02173913 11.2065217,4.02173913 C11.9891343,4.02173913 12.695649,4.18478098 13.326087,4.51086957 L16.6847826,4 L16.6847826,5.65217391 L14.5217391,5.65217391 C14.8478277,6.22464054 15.0108696,6.89854685 15.0108696,7.67391304 C15.0108696,8.7029037 14.6521775,9.57246022 13.9347826,10.2826087 C13.2173877,10.9927572 12.3079765,11.3478261 11.2065217,11.3478261 C10.9746365,11.3478261 10.7536242,11.3405798 10.5434783,11.326087 Z M11.2065217,10.0326087 C11.8297133,10.0326087 12.3387661,9.81703114 12.7336957,9.38586957 C13.1286252,8.95470799 13.326087,8.39130783 13.326087,7.69565217 C13.326087,6.96376446 13.1340599,6.39130641 12.75,5.97826087 C12.3659401,5.56521533 11.8514525,5.35869565 11.2065217,5.35869565 C10.6050695,5.35869565 10.0996397,5.57427321 9.69021739,6.00543478 C9.28079505,6.43659636 9.07608696,6.99999652 9.07608696,7.69565217 C9.07608696,8.376815 9.28079505,8.93659201 9.69021739,9.375 C10.0996397,9.81340799 10.6050695,10.0326087 11.2065217,10.0326087 Z M11.2717391,18.7608696 C12.3876867,18.7608696 13.3387642,18.5126836 14.125,18.0163043 C14.9112358,17.5199251 15.3043478,16.9058008 15.3043478,16.173913 C15.3043478,15.4202861 14.7463824,15.0434783 13.6304348,15.0434783 C13.2608677,15.0434783 12.6231929,15.0652172 11.7173913,15.1086957 C11.1449247,15.1376813 10.6956538,15.1521739 10.3695652,15.1521739 C10.2101441,15.1521739 9.96195821,15.2826074 9.625,15.5434783 C9.28804179,15.8043491 9.03079799,16.0670277 8.85326087,16.3315217 C8.67572375,16.5960158 8.58695652,16.8695638 8.58695652,17.1521739 C8.58695652,17.5942051 8.83333087,17.9728245 9.32608696,18.2880435 C9.81884304,18.6032624 10.4673873,18.7608696 11.2717391,18.7608696 Z" id="g"></path>
        </g>
    </g>
</svg>